inDegrees=yes
name=ik_s24_walk_orientation
DataType=double
version=3
OpenSimVersion=4.5
endheader
time	pelvis_tilt	pelvis_list	pelvis_rotation	pelvis_tx	pelvis_ty	pelvis_tz	hip_flexion_r	hip_adduction_r	hip_rotation_r	knee_angle_r	knee_angle_r_beta	ankle_angle_r	subtalar_angle_r	mtp_angle_r	hip_flexion_l	hip_adduction_l	hip_rotation_l	knee_angle_l	knee_angle_l_beta	ankle_angle_l	subtalar_angle_l	mtp_angle_l	lumbar_extension	lumbar_bending	lumbar_rotation	arm_flex_r	arm_add_r	arm_rot_r	elbow_flex_r	pro_sup_r	wrist_flex_r	wrist_dev_r	arm_flex_l	arm_add_l	arm_rot_l	elbow_flex_l	pro_sup_l	wrist_flex_l	wrist_dev_l
7.576923076923054	-5.707714525186399	-10.19488233799575	101.9183600511792	0	0.93	0	0.5155626035510336	-5.59897644754854	-27.43465719328026	0.01205054108414134	0.0002103216185651134	-4.999999851084042	1.681520432551574e-19	4.896324645941806e-23	-14.2919790429844	20.70629494352961	-39.98816513244648	0.1090978693471994	0.001904117027019226	-4.999999851052129	1.911750674562392e-19	3.011989769908776e-23	4.840105996904526e-25	-2.670134242288172e-19	-8.875349030331553e-12	2.175467518232729e-17	-7.463788821877789e-17	78.72060095916578	1.119827747246333e-15	4.168041131326117e-14	-5.03651073212094e-18	5.120247243251318e-19	8.575147839603324e-14	-1.561148537181941e-14	82.51284406469661	1.601503461551045e-14	0	5.4131779425467e-17	-3.103155845861282e-19
7.596153846153824	-3.882330304613985	-11.63028950972189	98.61733256310276	0	0.93	0	-3.56441272616142	-11.77749158528702	-31.54464697484637	0.01512508857946263	0.0002639825953674148	-4.999999851083242	0	0	-11.2322966352226	12.38768741162497	-39.98499717771244	0.2398831409839383	0.004186750630195473	-4.999999851052089	0	0	0	0	-8.87534903033212e-12	0	0	82.12639109886842	0	0	0	0	0	0	80.05842352927263	4.312369952557281e-46	0	0	0
7.615384615384593	-4.821991400965811	-13.21550650920887	98.58395710538268	0	0.93	0	-3.570335616501835	-12.59515827002325	-31.88676062629226	0.01837308127517407	0.0003206707619883059	-4.999999851082952	0	0	-23.93937859234585	17.85519439413502	-39.98546973262567	0.02196830258323842	0.000383419211151886	-4.999999851052049	0	0	0	0	-8.87534903033212e-12	0	0	81.80328975436014	0	1.372117712177317e-46	0	0	0	0	80.71363246985139	0	0	0	0
7.634615384615362	-5.509506881309476	-13.56506805750784	96.50889895053044	0	0.93	0	0.2220584989359761	-12.96023785366345	-31.93168983945753	0.01698588114911747	0.0002964595524045377	-4.999999851082073	0	0	-27.42241573552841	12.58504866728879	-39.98404543480757	0.01922225011431285	0.0003354915541366157	-4.999999851051932	0	0	0	0	-8.87534903033212e-12	0	0	83.93475370449464	2.0648572780753e-38	8.431565803361959e-39	0	0	0	0	77.90439682675022	2.516620932806199e-39	0	0	0
7.653846153846131	-5.916216636569659	-13.231883015855	94.98651079908012	0	0.93	0	9.175594770617277	-21.56922042552678	-29.28846066258213	0.01343356969367723	0.0002344600214507938	-4.999999851080482	0	0	-29.83174761572901	9.301013880546366	-39.981843192406	0.01564456131751767	0.0002730491050208253	-4.999999851051718	0	0	0	0	-8.87534903033212e-12	0	0	84.60408645848599	1.06866559727453e-38	1.544994494817456e-39	0	0	0	0	74.93006907349938	5.623264621506026e-39	0	0	0
7.6730769230769	-6.503933608999048	-13.56744446629159	96.12023874026116	0	0.93	0	4.672634069621662	-29.36561828357877	-35.74104460981147	0.01217800802252979	0.0002125463363274286	-4.999999851079784	0	0	-29.90618878652662	10.07500813274643	-39.98202177601021	0.01413718946815967	0.0002467405031976522	-4.999999851051624	0	0	0	0	-8.87534903033212e-12	0	0	83.51035103057266	1.036822115848258e-38	0	0	0	0	0	75.18898813266718	0	0	0	0
7.692307692307669	-7.409364065303893	-14.12896457954949	96.66392301427396	0	0.93	0	0.344772806096915	-35.24029661442979	-39.8941874214724	0.01071268057508542	0.0001869715477496802	-4.999999851076677	0	0	-29.89275191574582	7.575016852215546	-39.98694243349128	0.01431930385869159	0.0002499189989276971	-4.999999851048427	0	0	0	0	-8.87534903033212e-12	0	0	82.80782155425639	3.15707180360567e-38	0	0	0	0	0	76.48084319096697	0	1.052357267868557e-38	0	0
7.711538461538439	-8.00067259779525	-13.94639123004314	100.5230014968947	0	0.93	0	-10.27807861524202	-28.17531880072349	-21.84894895032792	0.0424970216210041	0.0007417129495777393	-4.999999851073398	0	0	-24.38901545584446	2.891195410993117	-39.9894582629915	0.01728954809797703	0.0003017595404916223	-4.999999851048292	0	0	0	0	-8.87534903033212e-12	0	0	78.14752440637098	0	3.758224134930517e-39	0	0	0	0	82.71914756705701	0	0	0	0
7.730769230769208	-6.818237740436414	-13.84096817493532	102.3224913412523	0	0.93	0	22.50509651884583	-47.8032536151351	-12.4285765039479	0.08237754349665981	0.001437759363721556	-4.999999851068603	0	0	-14.00621387417829	-5.046787338069534	-39.99040223104397	0.02521613102756098	0.0004401045110452401	-4.999999851048094	0	0	0	0	-8.87534903033212e-12	0	0	77.68062899732855	8.726463851078353e-39	1.781325553580854e-40	0	0	0	0	87.62075438547461	1.086579479187141e-38	0	0	0
7.749999999999977	-6.120493493129624	-14.33162970386376	97.58976034670847	0	0.93	0	-4.195992322773593	-20.09323456299933	-39.98625836721222	0.006312684872198692	0.0001101771356607046	-4.999999851065371	0	0	-14.07832729200882	-10.19165648236204	-39.9933031734963	0.02234311032048921	0.0003899608402288622	-4.99999985104795	0	0	0	0	-8.87534903033212e-12	0	0	83.26911866606076	0	3.92033632050662e-47	0	0	0	0	85.89451389033482	0	9.408807169215888e-46	0	0
